<svg width="41" height="41" viewBox="0 0 41 41" fill="none" xmlns="http://www.w3.org/2000/svg">
<path d="M25.5603 28.606H15.5603C12.5603 28.606 10.5603 26.606 10.5603 23.606V17.606C10.5603 14.606 12.5603 12.606 15.5603 12.606H25.5603C28.5603 12.606 30.5603 14.606 30.5603 17.606V23.606C30.5603 26.606 28.5603 28.606 25.5603 28.606Z" fill="black" stroke="black" stroke-width="1.5" stroke-miterlimit="10" stroke-linecap="round" stroke-linejoin="round"/>
<path d="M19.9603 18.106L22.4603 19.606C23.3603 20.206 23.3603 21.106 22.4603 21.706L19.9603 23.206C18.9603 23.806 18.1603 23.306 18.1603 22.206V19.206C18.1603 17.906 18.9603 17.506 19.9603 18.106Z" fill="#FF8C00" stroke="#FF8C00" stroke-width="1.5" stroke-miterlimit="10" stroke-linecap="round" stroke-linejoin="round"/>
<path d="M1.5603 1.60596H39.5603V39.606H1.5603V1.60596Z" stroke="black" stroke-width="2"/>
</svg>
