<svg width="41" height="41" viewBox="0 0 41 41" fill="none" xmlns="http://www.w3.org/2000/svg">
<path fill-rule="evenodd" clip-rule="evenodd" d="M30.5785 15.1591C30.7244 14.6673 30.5785 14.3059 29.8837 14.3059H27.5863C27.0022 14.3059 26.7328 14.6181 26.5868 14.9623C26.5868 14.9623 25.4184 17.8394 23.7633 19.7082C23.2279 20.2491 22.9845 20.4213 22.6924 20.4213C22.5464 20.4213 22.3273 20.2491 22.3273 19.7574V15.1591C22.3273 14.5689 22.1655 14.3059 21.6787 14.3059H18.0684C17.7034 14.3059 17.4838 14.5798 17.4838 14.8394C17.4838 15.3989 18.3113 15.5279 18.3966 17.1017V20.5197C18.3966 21.269 18.2627 21.4049 17.9706 21.4049C17.1918 21.4049 15.2972 18.515 14.1736 15.2083C13.9534 14.5655 13.7326 14.3059 13.1454 14.3059H10.848C10.1916 14.3059 10.0603 14.6181 10.0603 14.9623C10.0603 15.5771 10.8392 18.6263 13.6869 22.659C15.5853 25.413 18.2601 26.9059 20.694 26.9059C22.1544 26.9059 22.3351 26.5743 22.3351 26.0032V23.9217C22.3351 23.2586 22.4734 23.1262 22.9359 23.1262C23.2766 23.1262 23.8607 23.2983 25.2237 24.6262C26.7815 26.1999 27.0383 26.9059 27.9144 26.9059H30.2119C30.8683 26.9059 31.1965 26.5743 31.0071 25.92C30.7999 25.2678 30.0563 24.3216 29.0694 23.2C28.5339 22.5606 27.7307 21.8721 27.4873 21.5278C27.1465 21.0852 27.2439 20.8885 27.4873 20.4951C27.4873 20.4951 30.2864 16.5115 30.5785 15.1591Z" fill="black"/>
<path d="M1.5603 1.60596H39.5603V39.606H1.5603V1.60596Z" stroke="black" stroke-width="2"/>
</svg>
