<svg width="232" height="225" viewBox="0 0 232 225" fill="none" xmlns="http://www.w3.org/2000/svg">
<path d="M229.733 23.1115V191.038L229.312 191.244C197.149 206.863 158.54 215.969 117.019 215.969C75.4977 215.969 36.8883 206.863 4.72568 191.244C4.2437 191.009 3.77175 190.784 3.2998 190.54V23.1115H229.733Z" fill="#211E1E"/>
<path d="M229.733 23.1115H231.067V21.7782H229.733V23.1115ZM229.733 191.038L230.319 192.236L231.067 191.871V191.038H229.733ZM229.312 191.244L229.894 192.444L229.897 192.442L229.312 191.244ZM4.72568 191.244L4.14095 192.443L4.14324 192.444L4.72568 191.244ZM3.2998 190.54H1.96647V191.352L2.68739 191.725L3.2998 190.54ZM3.2998 23.1115V21.7782H1.96647V23.1115H3.2998ZM228.4 23.1115V191.038H231.067V23.1115H228.4ZM229.148 189.841L228.727 190.047L229.897 192.442L230.319 192.236L229.148 189.841ZM228.729 190.045C196.757 205.571 158.348 214.635 117.019 214.635V217.302C158.731 217.302 197.541 208.155 229.894 192.444L228.729 190.045ZM117.019 214.635C75.6894 214.635 37.2803 205.571 5.30813 190.045L4.14324 192.444C36.4963 208.155 75.3061 217.302 117.019 217.302V214.635ZM5.31041 190.046C4.81403 189.804 4.36594 189.59 3.91221 189.356L2.68739 191.725C3.17757 191.978 3.67337 192.215 4.14095 192.443L5.31041 190.046ZM4.63313 190.54V23.1115H1.96647V190.54H4.63313ZM3.2998 24.4449H229.733V21.7782H3.2998V24.4449Z" fill="white"/>
<path d="M181.994 0.679787L181.729 33.1229H189.925L181.729 37.1768L181.994 56.4273L193.099 31.8485L192.94 79.9001L207.867 47.6251L199.991 47.542L210.852 41.7569L227.768 4.5919H205.876L207.867 0.679787H181.994Z" fill="#A90208"/>
<path d="M181.994 0.679787L181.729 33.1229H189.925L181.729 37.1768L181.994 56.4273L193.099 31.8485L192.94 79.9001L207.867 47.6251L199.991 47.542L210.852 41.7569L227.768 4.5919H205.876L207.867 0.679787H181.994Z" stroke="white" stroke-width="0.999997"/>
<path fill-rule="evenodd" clip-rule="evenodd" d="M53.4907 166.577V164.073C53.4907 163.022 53.4907 163.022 54.4499 162.731V162.443H47.2256V162.731C48.1829 163.022 48.1829 163.022 48.1829 164.073V166.577C48.1829 167.625 48.1829 167.685 47.2256 167.915V168.267H50.6108V167.915C49.7073 167.625 49.7073 167.685 49.7073 166.577V162.965H51.9661V166.577C51.9661 167.685 51.9661 167.625 51.1193 167.915V168.267H54.4499V167.915C53.4907 167.685 53.4907 167.625 53.4907 166.577Z" fill="#F7F5F5"/>
<path fill-rule="evenodd" clip-rule="evenodd" d="M64.8963 167.857H63.6554C64.0495 167.161 64.2186 165.819 64.2186 164.304V162.966H66.0267V166.575C66.0267 167.331 66.1949 167.857 64.8963 167.857ZM62.1866 167.917H61.9598L61.7349 170.246L62.0732 170.305C62.6385 168.38 63.542 168.265 65.2346 168.265C66.9293 168.265 67.8895 168.44 68.398 170.305L68.7363 170.246L68.5095 167.917C67.5492 167.683 67.5492 167.623 67.5492 166.575V164.071C67.5492 163.022 67.5492 163.022 68.5095 162.732V162.44H62.525V162.732C63.4842 163.022 63.7659 163.022 63.7659 164.071V164.304C63.7659 167.857 62.6385 167.623 62.1866 167.917Z" fill="#F7F5F5"/>
<path fill-rule="evenodd" clip-rule="evenodd" d="M75.1165 165.82V163.372C75.4001 163.257 75.6241 163.141 75.9623 163.141C77.32 163.141 77.885 164.421 77.885 165.645C77.885 166.52 77.488 167.801 76.416 167.801C75.3426 167.801 75.1165 166.868 75.1165 165.82ZM75.1165 169.781V168.323L75.6241 168.382C77.5448 168.439 79.464 167.159 79.464 165.003C79.464 163.606 78.504 162.267 76.9797 162.267C76.2459 162.267 75.6241 162.674 75.0051 163.082L75.1753 162.384L74.8917 162.15L72.8023 163.082V163.257C73.5915 163.838 73.5915 163.606 73.5915 164.538V169.781C73.5915 170.828 73.5915 170.888 72.6343 171.179V171.47H76.6415V171.179C75.1165 170.888 75.1165 170.888 75.1165 169.781Z" fill="#F7F5F5"/>
<path fill-rule="evenodd" clip-rule="evenodd" d="M81.1022 164.364L82.908 168.789C82.7379 169.08 82.343 170.248 81.9487 170.248C81.7219 170.248 81.3837 169.836 81.271 169.664C80.7619 169.78 80.4223 170.071 80.4223 170.656C80.4223 171.178 80.8186 171.527 81.3256 171.527C81.9487 171.527 82.2862 171.062 82.5705 170.538C83.4163 168.966 84.0388 167.042 84.8853 165.062C85.5043 163.489 85.5638 163.024 86.4643 162.733V162.442H83.8687V162.733C84.7712 162.964 85.0548 163.024 84.2636 165.237L83.6985 166.927L82.7379 164.48C82.1161 162.79 82.343 163.024 83.0795 162.733V162.442H79.8013V162.733C80.5371 163.024 80.5939 163.138 81.1022 164.364Z" fill="#F7F5F5"/>
<path fill-rule="evenodd" clip-rule="evenodd" d="M93.1855 162.732V162.44H90.1922V162.732C90.2489 162.732 90.4183 162.848 90.4183 163.14C90.4183 163.548 89.4023 164.77 89.0635 165.179C89.0635 165.179 89.9674 166.577 90.5325 167.218C91.2649 168.034 91.6612 168.325 92.7325 168.325C93.014 168.325 93.2989 168.267 93.6364 168.208V167.857C92.9019 167.625 92.4489 167.159 91.8866 166.461L90.2489 164.478C91.0408 163.607 91.9413 162.966 93.1855 162.732ZM89.0081 166.577V164.071C89.0081 163.024 89.0081 162.966 89.6271 162.732V162.44H86.5225V162.732C87.4817 163.024 87.4817 163.024 87.4817 164.071V166.577C87.4817 167.625 87.4817 167.683 86.5225 167.917V168.267H89.9674V167.917C89.0081 167.625 89.0081 167.683 89.0081 166.577Z" fill="#F7F5F5"/>
<path fill-rule="evenodd" clip-rule="evenodd" d="M101.091 168.265H103.8C104.986 168.265 106.736 168.091 106.736 166.692C106.736 165.762 105.947 165.237 105.044 165.005C105.666 164.77 106.342 164.364 106.342 163.723C106.342 162.44 104.649 162.44 103.518 162.44H101.091V162.732C102.05 163.022 102.05 163.022 102.05 164.071V166.577C102.05 167.626 102.05 167.683 101.091 167.917V168.265ZM103.518 166.577V165.353C104.309 165.237 105.101 165.819 105.101 166.752C105.101 167.393 104.702 167.857 104.198 167.857C103.576 167.857 103.518 167.217 103.518 166.577ZM103.633 165.005H103.518V162.789C104.142 162.789 104.763 162.966 104.763 163.837C104.763 164.714 104.252 165.005 103.633 165.005Z" fill="#F7F5F5"/>
<path fill-rule="evenodd" clip-rule="evenodd" d="M117.184 167.857H115.94C116.394 167.161 116.564 165.819 116.564 164.304V162.966H118.315V166.575C118.315 167.331 118.54 167.857 117.184 167.857ZM114.472 167.917H114.247L114.021 170.246L114.417 170.305C114.927 168.38 115.829 168.265 117.522 168.265C119.217 168.265 120.177 168.44 120.686 170.305L121.024 170.246L120.796 167.917C119.837 167.683 119.837 167.623 119.837 166.575V164.071C119.837 163.022 119.837 163.022 120.796 162.732V162.44H114.87V162.732C115.829 163.022 116.054 163.022 116.054 164.071V164.304C116.054 167.857 114.927 167.623 114.472 167.917Z" fill="#F7F5F5"/>
<path fill-rule="evenodd" clip-rule="evenodd" d="M126.725 167.043L126.443 166.694C126.049 167.043 125.595 167.277 125.087 167.277C123.622 167.277 122.772 165.877 122.772 164.538C122.772 163.897 123.113 162.907 123.845 162.907C124.411 162.907 124.976 163.897 125.595 163.897C125.99 163.897 126.33 163.488 126.33 163.082C126.33 162.382 125.371 162.266 124.806 162.266C123.056 162.266 121.417 163.608 121.417 165.469C121.417 167.043 122.548 168.44 124.126 168.44C125.313 168.44 125.99 167.857 126.725 167.043Z" fill="#F7F5F5"/>
<path fill-rule="evenodd" clip-rule="evenodd" d="M128.929 162.848V166.577C128.929 167.624 128.929 167.624 127.911 167.917V168.267H131.469V167.917C130.453 167.624 130.453 167.624 130.453 166.577V162.848C131.638 162.848 132.09 162.965 132.428 164.19L132.768 164.13L132.485 162.151H132.315C132.147 162.44 131.865 162.44 131.581 162.44H127.798C127.686 162.44 127.516 162.44 127.346 162.383C127.235 162.383 127.121 162.325 127.065 162.151H126.838L126.614 164.13L126.951 164.19C127.289 162.965 127.745 162.848 128.929 162.848Z" fill="#F7F5F5"/>
<path fill-rule="evenodd" clip-rule="evenodd" d="M132.937 168.265H135.704C136.89 168.265 138.64 168.091 138.64 166.692C138.64 165.762 137.848 165.237 136.945 165.005C137.569 164.77 138.188 164.364 138.188 163.723C138.188 162.44 136.496 162.44 135.419 162.44H132.937V162.732C133.954 163.022 133.954 163.022 133.954 164.071V166.577C133.954 167.626 133.954 167.683 132.937 167.917V168.265ZM135.419 166.577V165.353C136.213 165.237 137.003 165.819 137.003 166.752C137.003 167.393 136.606 167.857 136.1 167.857C135.419 167.857 135.419 167.217 135.419 166.577ZM135.535 165.005H135.419V162.789C136.041 162.789 136.606 162.966 136.606 163.837C136.606 164.714 136.1 165.005 135.535 165.005Z" fill="#F7F5F5"/>
<path fill-rule="evenodd" clip-rule="evenodd" d="M149.707 162.44H147.165V162.732C148.126 163.022 148.069 163.022 147.958 164.071L147.617 166.579C147.446 167.624 147.446 167.684 146.43 167.917V168.266H149.085V167.917C148.182 167.624 148.182 167.684 148.239 166.579L148.352 164.071H148.407L150.158 168.325H150.44L152.303 163.898L152.417 166.579C152.474 167.684 152.53 167.624 151.57 167.917V168.266H155.013V167.917C153.998 167.684 153.998 167.624 153.94 166.579L153.828 164.071C153.714 163.022 153.714 163.022 154.675 162.732V162.44H151.965V162.732C151.965 162.732 152.19 162.85 151.965 163.432L150.837 165.996L149.764 163.548C149.593 163.022 149.536 162.789 149.707 162.732V162.44Z" fill="#F7F5F5"/>
<path fill-rule="evenodd" clip-rule="evenodd" d="M92.9039 175.664H92.7338V172.226C93.9199 172.226 94.9933 172.403 94.9933 173.859C94.9933 175.138 94.0341 175.664 92.9039 175.664ZM89.3477 180.675H93.5824C95.1628 180.675 97.4769 180.441 97.4769 178.284C97.4769 176.712 96.0653 175.955 94.8246 175.664C95.7278 175.372 96.9139 174.847 96.9139 173.682C96.9139 171.702 94.6531 171.702 93.2442 171.702H89.3477V172.053C91.0407 172.226 91.0407 172.459 91.0407 174.207V177.702C91.0407 180.092 90.8727 180.035 89.3477 180.264V180.675ZM92.7338 178.168V176.129C94.2014 176.013 95.557 176.946 95.557 178.46C95.557 179.449 94.8813 180.15 93.9199 180.15C92.6792 180.15 92.7338 179.099 92.7338 178.168Z" fill="#F7F5F5"/>
<path fill-rule="evenodd" clip-rule="evenodd" d="M99.7358 176.713C99.7358 178.343 99.6217 179.45 98.946 179.45C98.7731 179.45 98.6625 179.333 98.6058 179.16C98.2115 179.217 97.8159 179.569 97.8159 180.033C97.8159 180.499 98.2115 180.849 98.6625 180.849C100.077 180.849 100.245 179.042 100.245 176.713V175.374H101.994V178.983C101.994 180.033 101.994 180.09 101.034 180.324V180.674H104.479V180.324C103.52 180.09 103.52 180.033 103.52 178.983V176.479C103.52 175.431 103.52 175.431 104.479 175.139V174.849H98.4923V175.139C99.4523 175.431 99.7358 175.431 99.7358 176.479V176.713Z" fill="#F7F5F5"/>
<path fill-rule="evenodd" clip-rule="evenodd" d="M106.736 178.517L108.149 177.76V179.799C108.062 179.891 107.958 179.965 107.842 180.015C107.725 180.065 107.6 180.091 107.473 180.091C106.908 180.091 106.68 179.623 106.68 179.099C106.68 178.926 106.736 178.692 106.736 178.517ZM108.149 177.41L105.212 178.692C105.1 178.926 105.1 179.158 105.1 179.391C105.1 180.209 105.665 180.848 106.453 180.848C107.189 180.848 107.696 180.499 108.205 180.091C108.376 180.616 108.543 180.848 109.108 180.848C109.561 180.848 110.238 180.557 110.69 180.439V180.148C109.841 179.857 109.673 179.857 109.673 178.983V177.41C109.673 176.244 109.504 174.673 108.092 174.673C106.908 174.673 105.1 176.073 105.1 176.596C105.1 176.712 105.269 176.77 105.382 176.712L106.453 176.654V176.422C106.453 175.955 106.396 175.488 107.018 175.488C108.149 175.488 108.149 176.362 108.149 177.41Z" fill="#F7F5F5"/>
<path fill-rule="evenodd" clip-rule="evenodd" d="M113.626 180.265H112.383C112.836 179.569 113.004 178.229 113.004 176.713V175.374H114.757V178.984C114.757 179.742 114.924 180.265 113.626 180.265ZM110.914 180.326H110.69L110.465 182.652L110.802 182.713C111.369 180.791 112.271 180.674 113.965 180.674C115.66 180.674 116.62 180.847 117.129 182.713L117.467 182.652L117.239 180.326C116.279 180.092 116.279 180.034 116.279 178.984V176.479C116.279 175.431 116.279 175.431 117.239 175.139V174.849H111.255V175.139C112.215 175.431 112.496 175.431 112.496 176.479V176.713C112.496 180.326 111.369 180.034 110.914 180.326Z" fill="#F7F5F5"/>
<path fill-rule="evenodd" clip-rule="evenodd" d="M123.903 178.984V176.48C123.903 175.432 123.903 175.432 124.919 175.14V174.849H121.531V175.14C122.434 175.432 122.434 175.432 122.434 176.48L120.12 178.284V176.48C120.12 175.432 120.12 175.432 121.023 175.14V174.849H117.634V175.14C118.594 175.432 118.594 175.432 118.594 176.48V178.984C118.594 180.034 118.594 180.091 117.634 180.323V180.675H121.023V180.323C120.12 180.034 120.12 180.091 120.12 178.927L122.434 177.12V178.984C122.434 180.091 122.434 180.034 121.531 180.323V180.675H124.919V180.323C123.903 180.091 123.903 180.034 123.903 178.984Z" fill="#F7F5F5"/>
<path fill-rule="evenodd" clip-rule="evenodd" d="M128.532 174.848H125.99V175.139C126.952 175.43 126.893 175.43 126.782 176.478L126.444 178.983C126.274 180.033 126.274 180.091 125.257 180.325V180.673H127.856V180.325C127.007 180.033 126.952 180.091 127.063 178.983L127.177 176.478L128.983 180.733H129.265L131.129 176.364L131.244 178.983C131.299 180.091 131.299 180.033 130.395 180.325V180.673H133.84V180.325C132.823 180.091 132.823 180.033 132.766 178.983L132.654 176.478C132.54 175.43 132.54 175.43 133.503 175.139V174.848H130.79V175.139C130.79 175.139 131.015 175.256 130.79 175.838L129.662 178.402L128.589 175.955C128.421 175.43 128.362 175.256 128.532 175.139V174.848Z" fill="#F7F5F5"/>
<path fill-rule="evenodd" clip-rule="evenodd" d="M140.503 178.984V176.48C140.503 175.432 140.503 175.432 141.465 175.14V174.849H138.132V175.14C138.977 175.432 138.977 175.432 138.977 176.48L136.722 178.284V176.48C136.722 175.432 136.722 175.432 137.624 175.14V174.849H134.234V175.14C135.195 175.432 135.195 175.432 135.195 176.48V178.984C135.195 180.034 135.195 180.091 134.234 180.323V180.675H137.624V180.323C136.722 180.034 136.722 180.091 136.722 178.927L138.977 177.12V178.984C138.977 180.091 138.977 180.034 138.132 180.323V180.675H141.465V180.323C140.503 180.091 140.503 180.034 140.503 178.984Z" fill="#F7F5F5"/>
<path fill-rule="evenodd" clip-rule="evenodd" d="M144.23 178.227V175.78C144.514 175.663 144.795 175.548 145.134 175.548C146.432 175.548 147.053 176.828 147.053 178.054C147.053 178.927 146.658 180.207 145.585 180.207C144.514 180.207 144.23 179.277 144.23 178.227ZM144.23 182.245V180.731L144.795 180.791C146.713 180.848 148.636 179.625 148.636 177.41C148.636 176.015 147.672 174.675 146.15 174.675C145.36 174.675 144.738 175.081 144.173 175.489L144.287 174.789L144.059 174.559L141.969 175.489V175.663C142.762 176.246 142.762 176.071 142.762 176.946V182.245C142.762 183.236 142.762 183.295 141.801 183.587V183.879H145.812V183.587C144.23 183.295 144.23 183.295 144.23 182.245Z" fill="#F7F5F5"/>
<path fill-rule="evenodd" clip-rule="evenodd" d="M151.176 178.517L152.53 177.76V179.799C152.443 179.891 152.339 179.965 152.223 180.015C152.106 180.065 151.98 180.091 151.853 180.091C151.289 180.091 151.061 179.623 151.061 179.099C151.061 178.926 151.118 178.692 151.176 178.517ZM152.53 177.41L149.593 178.692C149.539 178.926 149.482 179.158 149.482 179.391C149.482 180.209 150.045 180.848 150.836 180.848C151.569 180.848 152.078 180.499 152.644 180.091C152.757 180.616 152.982 180.848 153.49 180.848C153.997 180.848 154.617 180.557 155.128 180.439V180.148C154.224 179.857 154.055 179.857 154.055 178.983V177.41C154.055 176.244 153.887 174.673 152.473 174.673C151.289 174.673 149.482 176.073 149.482 176.596C149.482 176.712 149.649 176.77 149.82 176.712L150.894 176.654V176.422C150.894 175.955 150.836 175.488 151.457 175.488C152.53 175.488 152.53 176.362 152.53 177.41Z" fill="#F7F5F5"/>
<path fill-rule="evenodd" clip-rule="evenodd" d="M92.9039 188.071H92.7338V184.634C93.9199 184.634 94.9933 184.81 94.9933 186.264C94.9933 187.606 94.0341 188.071 92.9039 188.071ZM89.3477 193.079H93.5824C95.1628 193.079 97.4769 192.848 97.4769 190.692C97.4769 189.122 96.0653 188.363 94.8246 188.071C95.7278 187.838 96.9139 187.315 96.9139 186.089C96.9139 184.11 94.6531 184.11 93.2442 184.11H89.3477V184.459C91.0407 184.634 91.0407 184.868 91.0407 186.615V190.168C91.0407 192.497 90.8727 192.44 89.3477 192.674V193.079ZM92.7338 190.576V188.536C94.2014 188.42 95.557 189.353 95.557 190.867C95.557 191.858 94.8813 192.558 93.9199 192.558C92.6792 192.558 92.7338 191.508 92.7338 190.576Z" fill="#F7F5F5"/>
<path fill-rule="evenodd" clip-rule="evenodd" d="M108.035 190.635V188.188C108.319 188.071 108.544 187.957 108.884 187.957C110.237 187.957 110.802 189.239 110.802 190.46C110.802 191.334 110.407 192.616 109.334 192.616C108.26 192.616 108.035 191.684 108.035 190.635ZM108.035 194.653V193.139L108.544 193.199C110.464 193.256 112.383 192.032 112.383 189.818C112.383 188.421 111.423 187.08 109.899 187.08C109.165 187.08 108.544 187.489 107.922 187.895L108.092 187.197L107.808 186.963L105.72 187.895V188.071C106.511 188.653 106.511 188.479 106.511 189.353V194.653C106.511 195.703 106.511 195.703 105.55 195.992V196.285H109.56V195.992C108.035 195.703 108.035 195.703 108.035 194.653Z" fill="#F7F5F5"/>
<path fill-rule="evenodd" clip-rule="evenodd" d="M126.725 191.391V188.887C126.725 187.839 126.725 187.839 127.685 187.545V187.257H124.354V187.545C125.2 187.839 125.2 187.839 125.2 188.887V189.761H122.942V188.887C122.942 187.839 122.942 187.839 123.845 187.545V187.257H120.457V187.545C121.417 187.839 121.417 187.895 121.417 188.887V191.391C121.417 192.442 121.417 192.499 120.457 192.731V193.08H123.845V192.731C122.942 192.442 122.942 192.499 122.942 191.391V190.284H125.2V191.391C125.2 192.499 125.2 192.442 124.354 192.731V193.08H127.685V192.731C126.725 192.499 126.725 192.442 126.725 191.391Z" fill="#F7F5F5"/>
<path fill-rule="evenodd" clip-rule="evenodd" d="M128.137 193.08H132.035C133.784 193.08 134.744 193.253 135.253 195.119L135.59 195.061L135.365 192.731C134.406 192.497 134.406 192.44 134.406 191.391V188.885C134.406 187.837 134.406 187.837 135.365 187.547V187.255H131.978V187.547C132.881 187.837 132.881 187.837 132.881 188.885V191.391C132.881 192.148 133.051 192.673 131.75 192.673C130.395 192.673 130.566 192.148 130.566 191.391V188.885C130.566 187.837 130.566 187.837 131.469 187.547V187.255H128.137V187.547C129.099 187.837 129.099 187.897 129.099 188.885V191.391C129.099 192.44 129.099 192.497 128.137 192.731V193.08Z" fill="#F7F5F5"/>
<path fill-rule="evenodd" clip-rule="evenodd" d="M143.156 193.08H145.923C147.11 193.08 148.86 192.905 148.86 191.506C148.86 190.576 148.013 190.05 147.164 189.818C147.788 189.644 148.407 189.177 148.407 188.537C148.407 187.255 146.715 187.255 145.642 187.255H143.156V187.547C144.116 187.837 144.116 187.897 144.116 188.886V191.391C144.116 192.44 144.116 192.497 143.156 192.731V193.08ZM145.642 191.449V190.168C146.431 190.05 147.221 190.693 147.221 191.623C147.221 192.206 146.826 192.731 146.318 192.731C145.642 192.731 145.642 192.032 145.642 191.449ZM145.754 189.818H145.642V187.603C146.261 187.603 146.826 187.781 146.826 188.71C146.826 189.527 146.318 189.818 145.754 189.818Z" fill="#F7F5F5"/>
<path fill-rule="evenodd" clip-rule="evenodd" d="M151.176 190.926L152.53 190.169V192.208C152.444 192.3 152.34 192.374 152.223 192.424C152.107 192.474 151.98 192.5 151.853 192.499C151.289 192.499 151.061 192.034 151.061 191.508C151.061 191.334 151.118 191.16 151.176 190.926ZM152.53 189.82L149.593 191.1C149.539 191.334 149.482 191.567 149.482 191.799C149.482 192.616 150.045 193.256 150.836 193.256C151.569 193.256 152.078 192.907 152.644 192.499C152.757 193.024 152.982 193.256 153.49 193.256C153.997 193.256 154.617 192.965 155.128 192.849V192.559C154.224 192.265 154.055 192.265 154.055 191.451V189.82C154.055 188.653 153.887 187.083 152.473 187.083C151.289 187.083 149.482 188.538 149.482 189.005C149.482 189.12 149.649 189.178 149.82 189.12L150.894 189.063V188.83C150.894 188.364 150.836 187.899 151.457 187.899C152.53 187.899 152.53 188.77 152.53 189.82Z" fill="#F7F5F5"/>
<path fill-rule="evenodd" clip-rule="evenodd" d="M177.115 132.009V113.531C178.652 112.417 180.132 111.654 181.895 111.654C189.067 111.654 192.253 121.391 192.253 130.425C192.253 136.996 190.206 146.911 184.398 146.911C178.481 146.911 177.115 139.753 177.115 132.009ZM177.115 179.818V150.899L179.961 151.133C190.546 151.778 200.902 142.275 200.902 125.85C200.902 115.058 195.667 104.907 187.414 104.907C183.318 104.907 179.903 108.191 176.603 111.242L177.401 105.789L175.976 104.321L164.767 111.066V112.651C168.92 116.993 168.92 115.408 168.92 122.387V179.818C168.92 187.679 168.92 187.973 163.628 189.966V192.373H185.537V189.966C177.115 187.796 177.115 187.973 177.115 179.818ZM142.345 109.483V137.7C142.345 145.502 142.345 145.737 136.712 147.79V150.195H156.174V147.79C150.539 145.737 150.539 145.502 150.539 137.7V109.483C157.027 109.483 159.588 110.366 161.465 119.573L163.116 119.222L161.807 104.206H160.839C159.929 106.609 158.335 106.258 156.683 106.258H136.257C135.403 106.258 134.549 106.376 133.809 106.199C133.125 105.965 132.501 105.378 131.988 104.206H131.021L129.767 119.222L131.419 119.573C133.411 110.366 135.858 109.483 142.345 109.483ZM107.632 134.006L115.315 128.257V143.86C114.175 145.033 113.151 145.795 111.556 145.795C108.428 145.795 107.176 142.451 107.176 138.461C107.176 136.996 107.46 135.588 107.632 134.006ZM115.315 125.556L99.1509 135.294C98.7532 137.053 98.5263 138.756 98.5263 140.573C98.5263 146.733 101.6 151.603 106.037 151.603C109.965 151.603 112.752 149.2 115.712 146.145C116.34 149.784 117.533 151.603 120.436 151.603C122.996 151.603 126.638 149.314 129.201 148.495V146.321C124.363 144.035 123.507 144.154 123.507 137.758V125.732C123.507 116.818 122.654 104.907 114.916 104.907C108.369 104.907 98.5263 115.82 98.5263 119.397C98.5263 120.571 99.608 120.688 100.289 120.571L106.153 119.983V118.285C106.153 114.529 105.754 111.066 109.28 111.066C115.258 111.066 115.315 117.931 115.315 125.556ZM82.1931 117.991L70.6431 118.517C71.3811 114.059 73.1447 108.487 77.0731 108.487C80.7725 108.487 81.8529 113.823 82.1931 117.991ZM70.242 121.861H90.8439C90.5603 111.242 86.2896 104.907 78.5531 104.907C69.5592 104.907 62.3329 116.521 62.3329 128.723C62.3329 141.631 68.9911 151.603 77.7571 151.603C83.9021 151.603 88.7386 145.737 92.095 139.049L90.3314 137.289C88.1694 140.751 86.1208 142.919 82.763 142.919C74.3384 142.919 70.0158 132.713 70.242 121.861ZM18.8008 101.799L20.7332 102.325C23.5781 88.1884 28.5874 86.8398 38.206 86.8398V128.139C38.206 146.145 37.2954 145.443 27.7914 147.437V150.195H57.7804V147.437C48.2782 145.443 47.3677 146.145 47.3677 128.139V86.8398C56.9833 86.8398 62.104 88.1884 64.8952 102.325L66.8307 101.799L65.2356 79.4501H63.8126C62.3896 83.1453 60.0571 82.6171 57.5534 82.6171H28.1317C26.8789 82.6171 25.6848 82.7334 24.5454 82.4411C23.5234 82.1474 22.5562 81.2678 21.8726 79.4501H20.3929L18.8008 101.799Z" fill="#A90208"/>
<path fill-rule="evenodd" clip-rule="evenodd" d="M42.3057 63.8446V65.3987C42.3057 69.022 42.4789 70.289 38.1791 70.5766V71.3257H49.3023V70.5766C46.1468 70.06 45.8035 70.232 45.8035 65.3987V58.3237C45.8035 54.2971 46.0324 54.4115 49.3023 53.9528V53.2027H40.7574C37.8328 53.2027 33.2475 53.6057 33.2475 58.0361C33.2475 60.4519 34.6237 61.8318 36.3999 62.6378C34.4525 66.2623 31.8145 69.9444 27.7446 70.9226L27.8571 71.6696C30.2084 71.4983 32.9589 71.7859 35.0237 70.2891C36.8616 69.022 39.0379 64.7112 39.612 63.6167C40.5862 63.7302 41.7316 63.8446 42.3057 63.8446ZM42.3057 58.2669V62.9263C39.2121 62.8099 37.2616 60.9115 37.2616 57.6918C37.2616 55.6194 38.4647 54.2404 40.1862 54.2404C42.3057 54.2404 42.3057 55.5627 42.3057 58.2669Z" fill="#F7F5F5"/>
<path fill-rule="evenodd" clip-rule="evenodd" d="M55.1473 66.4345V61.4857C55.7782 61.2001 56.2946 60.9693 56.9811 60.9693C59.7346 60.9693 60.9377 63.6148 60.9377 66.0306C60.9377 67.7568 60.1934 70.461 57.9554 70.461C55.7214 70.461 55.1473 68.5047 55.1473 66.4345ZM55.1473 74.4879V71.4956L56.2368 71.5548C60.3058 71.7832 64.2633 69.1946 64.2633 64.8247C64.2633 61.8896 62.2581 59.1844 59.1037 59.1844C57.5553 59.1844 56.2368 60.049 54.9761 60.8539L55.2617 59.4152L54.7452 59.0123L50.4464 60.7972V61.2568C52.0515 62.407 52.0515 62.004 52.0515 63.8457V74.4879C52.0515 76.6176 52.0515 76.6733 50.0454 77.2484V77.8826H58.4151V77.2484C55.1473 76.6176 55.1473 76.6733 55.1473 74.4879Z" fill="#F7F5F5"/>
<path fill-rule="evenodd" clip-rule="evenodd" d="M92.5855 68.8514L91.9568 68.2171C91.1517 68.9669 90.2354 69.3673 89.1447 69.3673C86.1078 69.3673 84.3296 66.5499 84.3296 63.8456C84.3296 62.5801 85.0745 60.5663 86.5069 60.5663C87.7116 60.5663 88.859 62.5234 90.1199 62.5234C90.9788 62.5234 91.7258 61.7762 91.7258 60.9136C91.7258 59.4162 89.7187 59.1873 88.5713 59.1873C84.8456 59.1873 81.4629 61.8906 81.4629 65.744C81.4629 68.8514 83.8704 71.7274 87.1964 71.7274C89.6046 71.7274 91.0376 70.5174 92.5855 68.8514Z" fill="#F7F5F5"/>
<path fill-rule="evenodd" clip-rule="evenodd" d="M95.8544 63.385C95.8544 66.6086 95.6234 68.9098 94.1904 68.9098C93.7892 68.9098 93.5617 68.6216 93.5617 68.2749C92.6439 68.4476 91.897 69.1375 91.897 70.1171C91.897 71.0388 92.702 71.7267 93.6163 71.7267C96.5979 71.7267 96.8863 68.1029 96.8863 63.385V60.5683H100.555V67.9874C100.555 70.06 100.555 70.1755 98.5483 70.6921V71.3236H105.713V70.6921C103.706 70.1755 103.706 70.06 103.706 67.9874V62.9263C103.706 60.7972 103.706 60.7395 105.713 60.1644V59.5316H93.2733V60.1644C95.3378 60.7395 95.8544 60.7972 95.8544 62.9263V63.385Z" fill="#F7F5F5"/>
<path fill-rule="evenodd" clip-rule="evenodd" d="M110.474 67.0096L113.399 65.4584V69.5984C112.939 69.9444 112.539 70.1755 111.965 70.1755C110.76 70.1755 110.301 69.2531 110.301 68.1601C110.301 67.7568 110.36 67.4116 110.474 67.0096ZM113.399 64.7083L107.206 67.3539C107.047 67.7971 106.97 68.2647 106.979 68.7351C106.979 70.4046 108.124 71.7274 109.843 71.7274C111.335 71.7274 112.425 71.0361 113.572 70.232C113.799 71.2081 114.259 71.7274 115.349 71.7274C116.322 71.7274 117.699 71.0946 118.673 70.8648V70.2891C116.839 69.6548 116.493 69.7126 116.493 67.9867V64.765C116.493 62.3502 116.207 59.1844 113.225 59.1844C110.705 59.1844 106.979 62.1194 106.979 63.0398C106.979 63.386 107.381 63.386 107.666 63.386L109.9 63.2129V62.7542C109.9 61.7751 109.727 60.7971 111.049 60.7971C113.342 60.7971 113.399 62.6378 113.399 64.7083Z" fill="#F7F5F5"/>
<path fill-rule="evenodd" clip-rule="evenodd" d="M119.36 71.3243H125.039C127.559 71.3243 131.17 71.0368 131.17 68.1607C131.17 66.3191 129.508 65.1689 127.616 64.766V64.7093C128.934 64.364 130.31 63.4994 130.31 62.1772C130.31 59.5316 126.757 59.5316 124.462 59.5316H119.36V60.1634C121.367 60.7395 121.367 60.7981 121.367 62.9243V67.9887C121.367 70.0579 121.367 70.1742 119.36 70.6921V71.3243ZM124.462 67.9887V65.4564C126.126 65.2843 127.79 66.4922 127.79 68.3898C127.79 69.5984 126.928 70.633 125.84 70.633C124.518 70.633 124.462 69.2524 124.462 67.9887ZM124.692 64.7093H124.462V60.2788C125.783 60.2788 126.985 60.6818 126.985 62.4647C126.985 64.1342 125.953 64.7093 124.692 64.7093Z" fill="#F7F5F5"/>
<path fill-rule="evenodd" clip-rule="evenodd" d="M143.612 68.8514L142.981 68.2171C142.179 68.9669 141.262 69.3673 140.114 69.3673C137.132 69.3673 135.356 66.5499 135.356 63.8456C135.356 62.5801 136.103 60.5663 137.534 60.5663C138.681 60.5663 139.885 62.5234 141.147 62.5234C142.007 62.5234 142.695 61.7762 142.695 60.9136C142.695 59.4162 140.746 59.1873 139.599 59.1873C135.872 59.1873 132.49 61.8906 132.49 65.744C132.49 68.8514 134.898 71.7274 138.223 71.7274C140.573 71.7274 142.007 70.5174 143.612 68.8514Z" fill="#F7F5F5"/>
<path fill-rule="evenodd" clip-rule="evenodd" d="M157.658 60.1645V59.5297H151.351V60.1645C151.582 60.2211 151.925 60.452 151.925 60.9703C151.925 61.831 149.745 64.3631 149.059 65.17C149.059 65.17 151.008 67.9299 152.156 69.2524C153.589 70.9226 154.564 71.4412 156.742 71.4412C157.371 71.4412 157.944 71.4412 158.576 71.323V70.635C157.142 70.06 156.109 69.0811 154.965 67.7021L151.582 63.7313C153.186 61.9494 155.08 60.6251 157.658 60.1645ZM148.943 67.9874V62.9273C148.943 60.7395 148.943 60.6251 150.262 60.1645V59.5297H143.784V60.1645C145.791 60.7395 145.791 60.7962 145.791 62.9273V67.9874C145.791 70.06 145.791 70.1748 143.784 70.6908V71.323H150.951V70.6908C148.943 70.1157 148.943 70.1748 148.943 67.9874Z" fill="#F7F5F5"/>
<path fill-rule="evenodd" clip-rule="evenodd" d="M171.705 67.9874V62.9263C171.705 60.7972 171.705 60.7375 173.768 60.1644V59.5316H166.717V60.1644C168.611 60.7972 168.611 60.7375 168.611 62.9263L163.794 66.5499V62.9263C163.794 60.7375 163.794 60.7972 165.685 60.1644V59.5316H158.633V60.1644C160.697 60.7375 160.697 60.7972 160.697 62.9263V67.9874C160.697 70.06 160.697 70.1755 158.633 70.6921V71.3264H165.685V70.6921C163.794 70.1171 163.794 70.2333 163.794 67.8155L168.611 64.1929V67.9874C168.611 70.1755 168.611 70.1171 166.717 70.6921V71.3264H173.768V70.6921C171.705 70.1755 171.705 70.06 171.705 67.9874Z" fill="#F7F5F5"/>
<path fill-rule="evenodd" clip-rule="evenodd" d="M187.643 67.9874V62.9263C187.643 60.7972 187.643 60.7375 189.708 60.1644V59.5316H182.655V60.1644C184.549 60.7972 184.549 60.7375 184.549 62.9263L179.733 66.5499V62.9263C179.733 60.7375 179.733 60.7972 181.624 60.1644V59.5316H174.57V60.1644C176.635 60.7375 176.635 60.7972 176.635 62.9263V67.9874C176.635 70.06 176.635 70.1755 174.57 70.6921V71.3264H181.624V70.6921C179.733 70.1171 179.733 70.2333 179.733 67.8155L184.549 64.1929V67.9874C184.549 70.1755 184.549 70.1171 182.655 70.6921V71.3264H189.708V70.6921C187.643 70.1755 187.643 70.06 187.643 67.9874Z" fill="#F7F5F5"/>
<path fill-rule="evenodd" clip-rule="evenodd" d="M87.8837 91.4017L80.6017 83.2915L82.7817 81.0469C85.1325 78.6317 86.6243 77.3083 89.8908 76.6768V75.9283H81.8079V76.6768C84.6158 77.1363 83.0673 78.8044 81.0602 81.0469L77.5067 85.0765L83.0673 91.6892C83.8136 92.5525 84.6158 93.1276 85.7065 93.5307C87.3097 94.1635 89.8334 94.2193 91.6102 94.3947L91.725 93.6462C90.1785 93.2432 88.9744 92.6681 87.8837 91.4017ZM73.6662 81.8538V88.1232C73.6662 92.9556 73.3224 92.7809 70.168 93.3016V94.0473H80.7172V93.3016C77.5067 92.7809 77.1616 92.9556 77.1616 88.1232V81.8538C77.1616 77.02 77.5067 77.1927 80.7172 76.6768V75.9283H70.168V76.6768C73.3224 77.1927 73.6662 77.02 73.6662 81.8538Z" fill="#F7F5F5"/>
<path fill-rule="evenodd" clip-rule="evenodd" d="M94.7071 89.6744L97.6312 88.181V92.3221C97.1727 92.6674 96.7715 92.8958 96.1975 92.8958C94.9927 92.8958 94.5348 91.9754 94.5348 90.8823C94.5348 90.4806 94.5922 90.1339 94.7071 89.6744ZM97.6312 87.4305L91.4392 90.0204C91.3244 90.5377 91.2109 90.9965 91.2109 91.4594C91.2109 93.1255 92.4143 94.4483 94.0763 94.4483C95.5667 94.4483 96.6574 93.7604 97.8027 92.9549C98.0317 93.9317 98.4916 94.4483 99.5809 94.4483C100.555 94.4483 101.931 93.8175 102.963 93.5857V93.0134C101.071 92.3785 100.784 92.4356 100.784 90.7124V87.4897C100.784 85.0745 100.441 81.9088 97.4597 81.9088C94.9381 81.9088 91.2109 84.844 91.2109 85.7631C91.2109 86.1077 91.61 86.1077 91.897 86.1077L94.133 85.9357V85.4755C94.133 84.498 93.9608 83.5199 95.3357 83.5199C97.5738 83.5199 97.6312 85.3607 97.6312 87.4305Z" fill="#F7F5F5"/>
<path fill-rule="evenodd" clip-rule="evenodd" d="M110.244 82.2542H105.027V82.889C106.92 83.4621 106.92 83.5199 106.631 85.6489L105.887 90.7104C105.6 92.7809 105.6 92.8971 103.479 93.4151V94.0473H108.927V93.4151C107.092 92.84 107.034 92.8971 107.205 90.7104L107.491 85.6489H107.551L111.277 94.2193H111.852L115.633 85.3029H115.689L115.977 90.7104C116.091 92.8971 116.091 92.7809 114.201 93.4151V94.0473H121.31V93.4151C119.303 92.8971 119.246 92.7809 119.13 90.7104L118.844 85.6489C118.674 83.5199 118.674 83.4621 120.678 82.889V82.2542H115.003V82.889C115.003 82.889 115.519 83.0603 114.945 84.3247L112.709 89.4453L110.475 84.4967C110.015 83.4621 109.959 83.0603 110.244 82.889V82.2542Z" fill="#F7F5F5"/>
<path fill-rule="evenodd" clip-rule="evenodd" d="M130.139 85.4177L125.724 85.5333C126.012 84.3247 126.698 82.8292 128.189 82.8292C129.565 82.8292 130.024 84.2669 130.139 85.4177ZM125.551 86.4557H133.464C133.349 83.5797 131.687 81.9102 128.705 81.9102C125.322 81.9102 122.572 85.014 122.572 88.2945C122.572 91.7456 125.093 94.449 128.419 94.449C130.768 94.449 132.66 92.8393 133.922 91.057L133.233 90.5955C132.431 91.5152 131.63 92.0923 130.366 92.0923C127.158 92.0923 125.493 89.3318 125.551 86.4557Z" fill="#F7F5F5"/>
<path fill-rule="evenodd" clip-rule="evenodd" d="M139.311 89.1571V84.2098C139.885 83.9223 140.458 83.6918 141.145 83.6918C143.899 83.6918 145.102 86.3402 145.102 88.7567C145.102 90.4792 144.3 93.1833 142.122 93.1833C139.827 93.1833 139.311 91.2276 139.311 89.1571ZM139.311 97.2108V94.2186L140.402 94.2777C144.413 94.4503 148.369 91.9183 148.369 87.4903C148.369 84.6122 146.42 81.9081 143.268 81.9081C141.661 81.9081 140.343 82.7735 139.138 83.5763L139.426 82.1379L138.911 81.7375L134.553 83.5205V83.98C136.158 85.1302 136.158 84.7278 136.158 86.5679V97.2108C136.158 99.3399 136.158 99.3956 134.151 99.9149V100.606H142.523V99.9149C139.311 99.3398 139.311 99.3956 139.311 97.2108Z" fill="#F7F5F5"/>
<path fill-rule="evenodd" clip-rule="evenodd" d="M162.876 90.711V85.6495C162.876 83.5205 162.876 83.4621 164.881 82.887V82.2548H157.887V82.887C159.722 83.4621 159.722 83.4621 159.722 85.6495V87.3163H154.964V85.6495C154.964 83.4621 154.964 83.4621 156.798 82.887V82.2548H149.804V82.887C151.811 83.4621 151.811 83.5205 151.811 85.6495V90.711C151.811 92.7816 151.811 92.8978 149.804 93.4165V94.0473H156.798V93.4165C154.964 92.8414 154.964 92.8978 154.964 90.711V88.3509H159.722V90.711C159.722 92.8978 159.722 92.8414 157.887 93.4165V94.0473H164.881V93.4165C162.876 92.8978 162.876 92.7816 162.876 90.711Z" fill="#F7F5F5"/>
<path fill-rule="evenodd" clip-rule="evenodd" d="M170.902 90.711V85.6495C170.902 83.6334 170.902 83.3465 173.139 82.887V82.2548H165.742V82.887C167.749 83.4621 167.749 83.5205 167.749 85.6495V90.711C167.749 92.7816 167.749 92.8978 165.742 93.4165V94.0473H171.934C174.054 94.0473 177.609 93.7597 177.609 90.883C177.609 88.1232 174.397 87.4883 172.049 87.145L171.934 87.7194C173.31 88.2387 174.17 89.3304 174.17 91.0563C174.17 92.3785 173.31 93.3002 172.277 93.3002C170.902 93.3002 170.902 92.4376 170.902 90.711ZM183.057 90.711V85.6495C183.057 83.5205 183.057 83.4621 185.064 82.887V82.2548H178.068V82.887C179.903 83.4621 179.903 83.4621 179.903 85.6495V90.711C179.903 92.8978 179.903 92.8414 178.068 93.4165V94.0473H185.064V93.4165C183.057 92.8978 183.057 92.7816 183.057 90.711Z" fill="#F7F5F5"/>
<path fill-rule="evenodd" clip-rule="evenodd" d="M198.996 90.711V85.6495C198.996 83.5205 198.996 83.4621 201.003 82.887V82.2548H194.007V82.887C195.9 83.4621 195.9 83.4621 195.9 85.6495L191.085 89.2733V85.6495C191.085 83.4621 191.085 83.4621 192.976 82.887V82.2548H185.922V82.887C187.93 83.4621 187.93 83.5205 187.93 85.6495V90.711C187.93 92.7816 187.93 92.8978 185.922 93.4165V94.0473H192.976V93.4165C191.085 92.8414 191.085 92.8978 191.085 90.5397L195.9 86.9132V90.711C195.9 92.8978 195.9 92.8414 194.007 93.4165V94.0473H201.003V93.4165C198.996 92.8978 198.996 92.7816 198.996 90.711Z" fill="#F7F5F5"/>
<path d="M55.1377 165.361C55.1377 164.547 55.4526 163.86 56.0824 163.301C56.7122 162.742 57.4325 162.462 58.2435 162.462C59.0631 162.462 59.7878 162.75 60.4176 163.327C61.0474 163.894 61.3622 164.594 61.3622 165.425C61.3622 166.247 61.056 166.942 60.4434 167.51C59.8395 168.07 59.1105 168.349 58.2565 168.349C57.4023 168.349 56.669 168.057 56.0565 167.471C55.4439 166.879 55.1377 166.175 55.1377 165.361ZM58.1917 162.92C57.6051 162.92 57.1651 163.17 56.8718 163.67C56.5785 164.17 56.4318 164.755 56.4318 165.425C56.4318 166.086 56.5828 166.662 56.8847 167.154C57.1953 167.645 57.6568 167.891 58.2694 167.891C58.8819 167.891 59.3348 167.649 59.6282 167.167C59.9215 166.684 60.0682 166.17 60.0682 165.628C60.0682 165.077 60.0121 164.619 59.9 164.255C59.7878 163.89 59.5851 163.577 59.2917 163.314C58.9984 163.052 58.6317 162.92 58.1917 162.92Z" fill="#F7F5F5"/>
<path d="M93.8682 165.361C93.8682 164.547 94.1828 163.86 94.8129 163.301C95.443 162.742 96.1629 162.462 96.9742 162.462C97.7938 162.462 98.5179 162.75 99.148 163.327C99.778 163.894 100.093 164.594 100.093 165.425C100.093 166.247 99.7863 166.942 99.1742 167.51C98.5698 168.07 97.8408 168.349 96.9867 168.349C96.1325 168.349 95.3994 168.057 94.7866 167.471C94.1746 166.879 93.8682 166.175 93.8682 165.361ZM96.9223 162.92C96.3359 162.92 95.8953 163.17 95.602 163.67C95.3088 164.17 95.1622 164.755 95.1622 165.425C95.1622 166.086 95.313 166.662 95.6152 167.154C95.9257 167.645 96.387 167.891 96.9998 167.891C97.6126 167.891 98.0656 167.649 98.3588 167.167C98.6521 166.684 98.7987 166.17 98.7987 165.628C98.7987 165.077 98.7427 164.619 98.6306 164.255C98.5179 163.89 98.3153 163.577 98.022 163.314C97.7288 163.052 97.3622 162.92 96.9223 162.92Z" fill="#F7F5F5"/>
<path d="M139.515 165.361C139.515 164.547 139.83 163.86 140.46 163.301C141.09 162.742 141.81 162.462 142.621 162.462C143.441 162.462 144.165 162.75 144.795 163.327C145.425 163.894 145.74 164.594 145.74 165.425C145.74 166.247 145.433 166.942 144.821 167.51C144.217 168.07 143.488 168.349 142.634 168.349C141.779 168.349 141.046 168.057 140.434 167.471C139.822 166.879 139.515 166.175 139.515 165.361ZM142.569 162.92C141.983 162.92 141.542 163.17 141.249 163.67C140.956 164.17 140.809 164.755 140.809 165.425C140.809 166.086 140.96 166.662 141.262 167.154C141.573 167.645 142.034 167.891 142.647 167.891C143.26 167.891 143.713 167.649 144.006 167.167C144.299 166.684 144.446 166.17 144.446 165.628C144.446 165.077 144.39 164.619 144.278 164.255C144.165 163.89 143.962 163.577 143.669 163.314C143.376 163.052 143.009 162.92 142.569 162.92Z" fill="#F7F5F5"/>
<path d="M107.701 165.361C107.701 164.547 108.015 163.86 108.645 163.301C109.275 162.742 109.995 162.462 110.807 162.462C111.626 162.462 112.35 162.75 112.98 163.327C113.611 163.894 113.925 164.594 113.925 165.425C113.925 166.247 113.619 166.942 113.007 167.51C112.402 168.07 111.673 168.349 110.819 168.349C109.965 168.349 109.232 168.057 108.619 167.471C108.007 166.879 107.701 166.175 107.701 165.361ZM110.755 162.92C110.168 162.92 109.728 163.17 109.435 163.67C109.141 164.17 108.995 164.755 108.995 165.425C108.995 166.086 109.145 166.662 109.448 167.154C109.758 167.645 110.22 167.891 110.832 167.891C111.445 167.891 111.898 167.649 112.191 167.167C112.485 166.684 112.631 166.17 112.631 165.628C112.631 165.077 112.575 164.619 112.463 164.255C112.35 163.89 112.148 163.577 111.855 163.314C111.561 163.052 111.195 162.92 110.755 162.92Z" fill="#F7F5F5"/>
<path d="M98.7095 189.833C98.7095 189.018 99.0242 188.332 99.6542 187.772C100.284 187.213 101.004 186.934 101.816 186.934C102.635 186.934 103.359 187.222 103.989 187.798C104.619 188.366 104.934 189.065 104.934 189.896C104.934 190.718 104.628 191.413 104.016 191.981C103.411 192.541 102.682 192.82 101.828 192.82C100.974 192.82 100.241 192.528 99.6279 191.943C99.0159 191.35 98.7095 190.646 98.7095 189.833ZM101.764 187.391C101.177 187.391 100.737 187.641 100.443 188.141C100.15 188.642 100.003 189.226 100.003 189.896C100.003 190.557 100.154 191.134 100.456 191.625C100.767 192.117 101.228 192.363 101.841 192.363C102.454 192.363 102.907 192.121 103.2 191.638C103.493 191.155 103.64 190.642 103.64 190.099C103.64 189.549 103.584 189.09 103.472 188.726C103.359 188.362 103.157 188.048 102.863 187.785C102.57 187.523 102.204 187.391 101.764 187.391Z" fill="#F7F5F5"/>
<path d="M113.233 189.833C113.233 189.018 113.548 188.332 114.178 187.772C114.808 187.213 115.528 186.934 116.339 186.934C117.159 186.934 117.883 187.222 118.513 187.798C119.143 188.366 119.458 189.065 119.458 189.896C119.458 190.718 119.152 191.413 118.539 191.981C117.935 192.541 117.206 192.82 116.352 192.82C115.498 192.82 114.765 192.528 114.152 191.943C113.54 191.35 113.233 190.646 113.233 189.833ZM116.288 187.391C115.701 187.391 115.261 187.641 114.967 188.141C114.674 188.642 114.527 189.226 114.527 189.896C114.527 190.557 114.678 191.134 114.98 191.625C115.291 192.117 115.752 192.363 116.365 192.363C116.978 192.363 117.431 192.121 117.724 191.638C118.017 191.155 118.164 190.642 118.164 190.099C118.164 189.549 118.108 189.09 117.996 188.726C117.883 188.362 117.68 188.048 117.387 187.785C117.094 187.523 116.727 187.391 116.288 187.391Z" fill="#F7F5F5"/>
<path d="M136.057 189.833C136.057 189.018 136.371 188.332 137.001 187.772C137.631 187.213 138.351 186.934 139.163 186.934C139.982 186.934 140.706 187.222 141.336 187.798C141.967 188.366 142.281 189.065 142.281 189.896C142.281 190.718 141.975 191.413 141.363 191.981C140.758 192.541 140.029 192.82 139.175 192.82C138.321 192.82 137.588 192.528 136.975 191.943C136.363 191.35 136.057 190.646 136.057 189.833ZM139.111 187.391C138.524 187.391 138.084 187.641 137.791 188.141C137.497 188.642 137.351 189.226 137.351 189.896C137.351 190.557 137.501 191.134 137.804 191.625C138.114 192.117 138.576 192.363 139.188 192.363C139.801 192.363 140.254 192.121 140.547 191.638C140.841 191.155 140.987 190.642 140.987 190.099C140.987 189.549 140.931 189.09 140.819 188.726C140.706 188.362 140.504 188.048 140.21 187.785C139.917 187.523 139.551 187.391 139.111 187.391Z" fill="#F7F5F5"/>
<path d="M65.9854 65.4504C65.9854 63.7167 66.9035 62.1186 68.303 60.9267C69.7027 59.7349 71.3037 59.139 73.1054 59.139C74.9271 59.139 76.5372 59.7529 77.937 60.9809C79.3362 62.1908 80.2284 63.6806 80.2284 65.4504C80.2284 67.2021 79.3555 68.6828 77.9944 69.8928C76.652 71.0844 75.0323 71.6805 73.1345 71.6805C71.236 71.6805 69.6067 71.0572 68.2456 69.8112C66.8843 68.5475 65.9854 67.184 65.9854 65.4504ZM72.9906 60.1142C71.6869 60.1142 70.709 60.6469 70.0575 61.7123C69.4054 62.7777 69.316 64.0238 69.316 65.4504C69.316 66.8589 69.415 68.0866 70.0858 69.1341C70.776 70.1817 71.8017 70.7051 73.1628 70.7051C74.5239 70.7051 75.5309 70.1905 76.1824 69.1613C76.8346 68.1322 76.9238 66.7524 76.9238 65.5967C76.9238 64.4229 76.827 63.6541 76.578 62.8776C76.329 62.1012 76.087 61.5136 75.4348 60.9539C74.7833 60.394 73.9685 60.1142 72.9906 60.1142Z" fill="#F7F5F5"/>
</svg>
